%TF.GenerationSoftware,KiCad,Pcbnew,5.1.6-c6e7f7d~87~ubuntu20.04.1*%
%TF.CreationDate,2020-07-21T15:48:12+01:00*%
%TF.ProjectId,pmt_combiner,706d745f-636f-46d6-9269-6e65722e6b69,rev?*%
%TF.SameCoordinates,Original*%
%TF.FileFunction,Other,User*%
%FSLAX46Y46*%
G04 Gerber Fmt 4.6, Leading zero omitted, Abs format (unit mm)*
G04 Created by KiCad (PCBNEW 5.1.6-c6e7f7d~87~ubuntu20.04.1) date 2020-07-21 15:48:12*
%MOMM*%
%LPD*%
G01*
G04 APERTURE LIST*
%ADD10C,0.050000*%
G04 APERTURE END LIST*
D10*
%TO.C,REF\u002A\u002A*%
X141550000Y-40500000D02*
G75*
G03*
X141550000Y-40500000I-3050000J0D01*
G01*
X192550000Y-54500000D02*
G75*
G03*
X192550000Y-54500000I-3050000J0D01*
G01*
%TO.C,C1*%
X172750000Y-94000000D02*
G75*
G03*
X172750000Y-94000000I-5250000J0D01*
G01*
%TO.C,C2*%
X185250000Y-62000000D02*
G75*
G03*
X185250000Y-62000000I-5250000J0D01*
G01*
%TO.C,J1*%
X182500000Y-98500000D02*
X182500000Y-98750000D01*
X182500000Y-98750000D02*
X197500000Y-98750000D01*
X182500000Y-98500000D02*
X182500000Y-96000000D01*
X182500000Y-96000000D02*
X181500000Y-96000000D01*
X181500000Y-96000000D02*
X181500000Y-92000000D01*
X181500000Y-92000000D02*
X182500000Y-92000000D01*
X182500000Y-92000000D02*
X182500000Y-89250000D01*
X182500000Y-89250000D02*
X184500000Y-89250000D01*
X184500000Y-89250000D02*
X184500000Y-87250000D01*
X184500000Y-87250000D02*
X188500000Y-87250000D01*
X188500000Y-87250000D02*
X188500000Y-89250000D01*
X188500000Y-89250000D02*
X197500000Y-89250000D01*
X197500000Y-89250000D02*
X197500000Y-98750000D01*
%TO.C,J2*%
X133350000Y-51700000D02*
X133350000Y-15200000D01*
X133350000Y-15200000D02*
X117650000Y-15200000D01*
X117650000Y-51700000D02*
X117650000Y-15200000D01*
X117650000Y-51700000D02*
X133350000Y-51700000D01*
%TO.C,J3*%
X143650000Y-51700000D02*
X159350000Y-51700000D01*
X143650000Y-51700000D02*
X143650000Y-15200000D01*
X159350000Y-15200000D02*
X143650000Y-15200000D01*
X159350000Y-51700000D02*
X159350000Y-15200000D01*
%TO.C,J4*%
X170150000Y-51700000D02*
X185850000Y-51700000D01*
X170150000Y-51700000D02*
X170150000Y-15200000D01*
X185850000Y-15200000D02*
X170150000Y-15200000D01*
X185850000Y-51700000D02*
X185850000Y-15200000D01*
%TO.C,R1*%
X169550000Y-80500000D02*
X169550000Y-85500000D01*
X169550000Y-85500000D02*
X192770000Y-85500000D01*
X192770000Y-85500000D02*
X192770000Y-80500000D01*
X192770000Y-80500000D02*
X169550000Y-80500000D01*
%TO.C,R2*%
X169730000Y-75500000D02*
X192950000Y-75500000D01*
X169730000Y-70500000D02*
X169730000Y-75500000D01*
X192950000Y-70500000D02*
X169730000Y-70500000D01*
X192950000Y-75500000D02*
X192950000Y-70500000D01*
%TO.C,R3*%
X121000000Y-92770000D02*
X121000000Y-69550000D01*
X116000000Y-92770000D02*
X121000000Y-92770000D01*
X116000000Y-69550000D02*
X116000000Y-92770000D01*
X121000000Y-69550000D02*
X116000000Y-69550000D01*
%TO.C,R4*%
X166500000Y-52050000D02*
X161500000Y-52050000D01*
X161500000Y-52050000D02*
X161500000Y-75270000D01*
X161500000Y-75270000D02*
X166500000Y-75270000D01*
X166500000Y-75270000D02*
X166500000Y-52050000D01*
%TO.C,R5*%
X123000000Y-92950000D02*
X128000000Y-92950000D01*
X128000000Y-92950000D02*
X128000000Y-69730000D01*
X128000000Y-69730000D02*
X123000000Y-69730000D01*
X123000000Y-69730000D02*
X123000000Y-92950000D01*
%TO.C,R6*%
X152000000Y-69550000D02*
X147000000Y-69550000D01*
X147000000Y-69550000D02*
X147000000Y-92770000D01*
X147000000Y-92770000D02*
X152000000Y-92770000D01*
X152000000Y-92770000D02*
X152000000Y-69550000D01*
%TO.C,R7*%
X154000000Y-69730000D02*
X154000000Y-92950000D01*
X159000000Y-69730000D02*
X154000000Y-69730000D01*
X159000000Y-92950000D02*
X159000000Y-69730000D01*
X154000000Y-92950000D02*
X159000000Y-92950000D01*
%TO.C,SW1*%
X133550000Y-62750000D02*
X133550000Y-57000000D01*
X133550000Y-57000000D02*
X117550000Y-57000000D01*
X117550000Y-57000000D02*
X117550000Y-62750000D01*
X117550000Y-62750000D02*
X133550000Y-62750000D01*
%TO.C,SW2*%
X143550000Y-62750000D02*
X159550000Y-62750000D01*
X143550000Y-57000000D02*
X143550000Y-62750000D01*
X159550000Y-57000000D02*
X143550000Y-57000000D01*
X159550000Y-62750000D02*
X159550000Y-57000000D01*
%TO.C,U1*%
X132950000Y-71900000D02*
X132950000Y-90350000D01*
X132950000Y-90350000D02*
X143650000Y-90350000D01*
X143650000Y-90350000D02*
X143650000Y-71900000D01*
X143650000Y-71900000D02*
X132950000Y-71900000D01*
%TD*%
M02*
