M48
; DRILL file {KiCad 5.1.6-c6e7f7d~87~ubuntu20.04.1} date Tue Jul 21 15:48:16 2020
; FORMAT={-:-/ absolute / metric / decimal}
; #@! TF.CreationDate,2020-07-21T15:48:16+01:00
; #@! TF.GenerationSoftware,Kicad,Pcbnew,5.1.6-c6e7f7d~87~ubuntu20.04.1
; #@! TF.FileFunction,Plated,1,2,PTH
FMAT,2
METRIC
T1C0.400
T2C0.800
T3C0.890
T4C1.000
T5C1.200
T6C1.500
T7C2.010
%
G90
G05
T1
X138.0Y-72.5
X138.0Y-77.5
X145.0Y-93.0
X145.5Y-95.5
T2
X134.5Y-73.5
X134.5Y-76.04
X134.5Y-78.58
X134.5Y-81.12
X134.5Y-83.66
X134.5Y-86.2
X134.5Y-88.74
X142.12Y-73.5
X142.12Y-76.04
X142.12Y-78.58
X142.12Y-81.12
X142.12Y-83.66
X142.12Y-86.2
X142.12Y-88.74
T3
X148.96Y-49.0
X151.5Y-49.0
X175.46Y-49.0
X178.0Y-49.0
X122.96Y-49.0
X125.5Y-49.0
T4
X165.0Y-94.0
X170.0Y-94.0
X177.5Y-62.0
X182.5Y-62.0
T5
X156.5Y-71.18
X156.5Y-91.5
X149.5Y-71.0
X149.5Y-91.32
X171.0Y-83.0
X191.32Y-83.0
X171.18Y-73.0
X191.5Y-73.0
X118.5Y-71.0
X118.5Y-91.32
X125.5Y-71.18
X125.5Y-91.5
X164.0Y-53.5
X164.0Y-73.82
T6
X120.1Y-59.5
X125.55Y-59.5
X131.0Y-59.5
X146.1Y-59.5
X151.55Y-59.5
X157.0Y-59.5
T7
X146.42Y-43.92
X156.58Y-43.92
X172.92Y-43.92
X183.08Y-43.92
X120.42Y-43.92
X130.58Y-43.92
T4
G00X183.5Y-95.0
M15
G01X183.5Y-93.0
M16
G05
G00X187.5Y-89.3
M15
G01X185.5Y-89.3
M16
G05
G00X189.5Y-95.0
M15
G01X189.5Y-93.0
M16
G05
T0
M30
