%TF.GenerationSoftware,KiCad,Pcbnew,5.1.6-c6e7f7d~87~ubuntu20.04.1*%
%TF.CreationDate,2020-07-21T15:48:12+01:00*%
%TF.ProjectId,pmt_combiner,706d745f-636f-46d6-9269-6e65722e6b69,rev?*%
%TF.SameCoordinates,Original*%
%TF.FileFunction,Copper,L2,Bot*%
%TF.FilePolarity,Positive*%
%FSLAX46Y46*%
G04 Gerber Fmt 4.6, Leading zero omitted, Abs format (unit mm)*
G04 Created by KiCad (PCBNEW 5.1.6-c6e7f7d~87~ubuntu20.04.1) date 2020-07-21 15:48:12*
%MOMM*%
%LPD*%
G01*
G04 APERTURE LIST*
%TA.AperFunction,ComponentPad*%
%ADD10R,2.000000X2.000000*%
%TD*%
%TA.AperFunction,ComponentPad*%
%ADD11C,2.000000*%
%TD*%
%TA.AperFunction,ComponentPad*%
%ADD12R,3.500000X3.500000*%
%TD*%
%TA.AperFunction,ComponentPad*%
%ADD13O,1.600000X2.500000*%
%TD*%
%TA.AperFunction,ComponentPad*%
%ADD14O,3.500000X7.000000*%
%TD*%
%TA.AperFunction,ComponentPad*%
%ADD15C,2.400000*%
%TD*%
%TA.AperFunction,ComponentPad*%
%ADD16O,2.400000X2.400000*%
%TD*%
%TA.AperFunction,ComponentPad*%
%ADD17R,2.500000X4.500000*%
%TD*%
%TA.AperFunction,ComponentPad*%
%ADD18O,2.500000X4.500000*%
%TD*%
%TA.AperFunction,ComponentPad*%
%ADD19R,1.600000X1.600000*%
%TD*%
%TA.AperFunction,ComponentPad*%
%ADD20O,1.600000X1.600000*%
%TD*%
%TA.AperFunction,ViaPad*%
%ADD21C,0.800000*%
%TD*%
%TA.AperFunction,Conductor*%
%ADD22C,0.250000*%
%TD*%
G04 APERTURE END LIST*
D10*
%TO.P,C1,1*%
%TO.N,Net-(C1-Pad1)*%
X170000000Y-94000000D03*
D11*
%TO.P,C1,2*%
%TO.N,GND*%
X165000000Y-94000000D03*
%TD*%
%TO.P,C2,2*%
%TO.N,Net-(C2-Pad2)*%
X182500000Y-62000000D03*
D10*
%TO.P,C2,1*%
%TO.N,GND*%
X177500000Y-62000000D03*
%TD*%
D12*
%TO.P,J1,1*%
%TO.N,Net-(C2-Pad2)*%
X183500000Y-94000000D03*
%TO.P,J1,2*%
%TO.N,Net-(C1-Pad1)*%
%TA.AperFunction,ComponentPad*%
G36*
G01*
X191000000Y-93000000D02*
X191000000Y-95000000D01*
G75*
G02*
X190250000Y-95750000I-750000J0D01*
G01*
X188750000Y-95750000D01*
G75*
G02*
X188000000Y-95000000I0J750000D01*
G01*
X188000000Y-93000000D01*
G75*
G02*
X188750000Y-92250000I750000J0D01*
G01*
X190250000Y-92250000D01*
G75*
G02*
X191000000Y-93000000I0J-750000D01*
G01*
G37*
%TD.AperFunction*%
%TO.P,J1,3*%
%TO.N,N/C*%
%TA.AperFunction,ComponentPad*%
G36*
G01*
X188250000Y-88425000D02*
X188250000Y-90175000D01*
G75*
G02*
X187375000Y-91050000I-875000J0D01*
G01*
X185625000Y-91050000D01*
G75*
G02*
X184750000Y-90175000I0J875000D01*
G01*
X184750000Y-88425000D01*
G75*
G02*
X185625000Y-87550000I875000J0D01*
G01*
X187375000Y-87550000D01*
G75*
G02*
X188250000Y-88425000I0J-875000D01*
G01*
G37*
%TD.AperFunction*%
%TD*%
D13*
%TO.P,J2,2*%
%TO.N,GND*%
X122960000Y-49000000D03*
%TO.P,J2,1*%
%TO.N,Net-(J2-Pad1)*%
X125500000Y-49000000D03*
D14*
%TO.P,J2,2*%
%TO.N,GND*%
X130580000Y-43920000D03*
X120420000Y-43920000D03*
%TD*%
%TO.P,J3,2*%
%TO.N,GND*%
X146420000Y-43920000D03*
X156580000Y-43920000D03*
D13*
%TO.P,J3,1*%
%TO.N,Net-(J3-Pad1)*%
X151500000Y-49000000D03*
%TO.P,J3,2*%
%TO.N,GND*%
X148960000Y-49000000D03*
%TD*%
D14*
%TO.P,J4,2*%
%TO.N,GND*%
X172920000Y-43920000D03*
X183080000Y-43920000D03*
D13*
%TO.P,J4,1*%
%TO.N,Net-(J4-Pad1)*%
X178000000Y-49000000D03*
%TO.P,J4,2*%
%TO.N,GND*%
X175460000Y-49000000D03*
%TD*%
D15*
%TO.P,R1,1*%
%TO.N,GND*%
X171000000Y-83000000D03*
D16*
%TO.P,R1,2*%
%TO.N,Net-(C1-Pad1)*%
X191320000Y-83000000D03*
%TD*%
%TO.P,R2,2*%
%TO.N,GND*%
X171180000Y-73000000D03*
D15*
%TO.P,R2,1*%
%TO.N,Net-(C2-Pad2)*%
X191500000Y-73000000D03*
%TD*%
D16*
%TO.P,R3,2*%
%TO.N,Net-(R3-Pad2)*%
X118500000Y-91320000D03*
D15*
%TO.P,R3,1*%
%TO.N,Net-(R3-Pad1)*%
X118500000Y-71000000D03*
%TD*%
%TO.P,R4,1*%
%TO.N,Net-(R4-Pad1)*%
X164000000Y-53500000D03*
D16*
%TO.P,R4,2*%
%TO.N,Net-(R3-Pad2)*%
X164000000Y-73820000D03*
%TD*%
D15*
%TO.P,R5,1*%
%TO.N,Net-(R3-Pad2)*%
X125500000Y-91500000D03*
D16*
%TO.P,R5,2*%
%TO.N,Net-(R5-Pad2)*%
X125500000Y-71180000D03*
%TD*%
D15*
%TO.P,R6,1*%
%TO.N,Net-(R5-Pad2)*%
X149500000Y-71000000D03*
D16*
%TO.P,R6,2*%
%TO.N,Net-(R6-Pad2)*%
X149500000Y-91320000D03*
%TD*%
%TO.P,R7,2*%
%TO.N,Net-(J4-Pad1)*%
X156500000Y-71180000D03*
D15*
%TO.P,R7,1*%
%TO.N,Net-(R6-Pad2)*%
X156500000Y-91500000D03*
%TD*%
D17*
%TO.P,SW1,1*%
%TO.N,Net-(J2-Pad1)*%
X131000000Y-59500000D03*
D18*
%TO.P,SW1,2*%
%TO.N,Net-(R3-Pad1)*%
X125550000Y-59500000D03*
%TO.P,SW1,3*%
%TO.N,GND*%
X120100000Y-59500000D03*
%TD*%
%TO.P,SW2,3*%
%TO.N,GND*%
X146100000Y-59500000D03*
%TO.P,SW2,2*%
%TO.N,Net-(R4-Pad1)*%
X151550000Y-59500000D03*
D17*
%TO.P,SW2,1*%
%TO.N,Net-(J3-Pad1)*%
X157000000Y-59500000D03*
%TD*%
D19*
%TO.P,U1,1*%
%TO.N,Net-(R5-Pad2)*%
X134500000Y-73500000D03*
D20*
%TO.P,U1,8*%
%TO.N,Net-(U1-Pad8)*%
X142120000Y-88740000D03*
%TO.P,U1,2*%
%TO.N,Net-(R3-Pad2)*%
X134500000Y-76040000D03*
%TO.P,U1,9*%
%TO.N,Net-(U1-Pad9)*%
X142120000Y-86200000D03*
%TO.P,U1,3*%
%TO.N,GND*%
X134500000Y-78580000D03*
%TO.P,U1,10*%
%TO.N,Net-(U1-Pad10)*%
X142120000Y-83660000D03*
%TO.P,U1,4*%
%TO.N,Net-(C2-Pad2)*%
X134500000Y-81120000D03*
%TO.P,U1,11*%
%TO.N,Net-(C1-Pad1)*%
X142120000Y-81120000D03*
%TO.P,U1,5*%
%TO.N,GND*%
X134500000Y-83660000D03*
%TO.P,U1,12*%
%TO.N,Net-(U1-Pad12)*%
X142120000Y-78580000D03*
%TO.P,U1,6*%
%TO.N,Net-(R6-Pad2)*%
X134500000Y-86200000D03*
%TO.P,U1,13*%
%TO.N,Net-(U1-Pad13)*%
X142120000Y-76040000D03*
%TO.P,U1,7*%
%TO.N,Net-(J4-Pad1)*%
X134500000Y-88740000D03*
%TO.P,U1,14*%
%TO.N,Net-(U1-Pad14)*%
X142120000Y-73500000D03*
%TD*%
D21*
%TO.N,Net-(C1-Pad1)*%
X145500000Y-95500000D03*
X145000000Y-93000000D03*
%TO.N,Net-(C2-Pad2)*%
X138000000Y-72500000D03*
X138000000Y-77500000D03*
%TD*%
D22*
%TO.N,Net-(C1-Pad1)*%
X145500000Y-95500000D02*
X145000000Y-95000000D01*
X145000000Y-95000000D02*
X145000000Y-93000000D01*
%TO.N,GND*%
X171180000Y-68320000D02*
X177500000Y-62000000D01*
X171180000Y-73000000D02*
X171180000Y-68320000D01*
X175460000Y-46460000D02*
X172920000Y-43920000D01*
X175460000Y-49000000D02*
X175460000Y-46460000D01*
X175460000Y-46460000D02*
X175460000Y-46040000D01*
X177580000Y-43920000D02*
X183080000Y-43920000D01*
X175460000Y-46040000D02*
X177580000Y-43920000D01*
X154040000Y-43920000D02*
X156580000Y-43920000D01*
X148960000Y-49000000D02*
X154040000Y-43920000D01*
X148960000Y-46460000D02*
X146420000Y-43920000D01*
X148960000Y-49000000D02*
X148960000Y-46460000D01*
X128040000Y-43920000D02*
X130580000Y-43920000D01*
X122960000Y-49000000D02*
X128040000Y-43920000D01*
X122960000Y-46460000D02*
X120420000Y-43920000D01*
X122960000Y-49000000D02*
X122960000Y-46460000D01*
X120100000Y-51860000D02*
X122960000Y-49000000D01*
X120100000Y-59500000D02*
X120100000Y-51860000D01*
X146100000Y-51860000D02*
X148960000Y-49000000D01*
X146100000Y-59500000D02*
X146100000Y-51860000D01*
X133374999Y-79705001D02*
X133294999Y-79705001D01*
X134500000Y-78580000D02*
X133374999Y-79705001D01*
X133294999Y-82454999D02*
X134500000Y-83660000D01*
X133294999Y-79705001D02*
X133294999Y-82454999D01*
X177500000Y-62000000D02*
X174000000Y-65500000D01*
X126100000Y-65500000D02*
X120100000Y-59500000D01*
X140500000Y-65500000D02*
X137000000Y-65500000D01*
X174000000Y-65500000D02*
X140500000Y-65500000D01*
X137000000Y-65500000D02*
X132500000Y-70000000D01*
X132500000Y-76580000D02*
X134500000Y-78580000D01*
X132500000Y-70000000D02*
X132500000Y-76580000D01*
X140100000Y-65500000D02*
X146100000Y-59500000D01*
X139500000Y-65500000D02*
X140100000Y-65500000D01*
X140500000Y-65500000D02*
X139500000Y-65500000D01*
X139500000Y-65500000D02*
X126100000Y-65500000D01*
X177500000Y-62000000D02*
X177500000Y-55500000D01*
X175460000Y-53460000D02*
X175460000Y-49000000D01*
X177500000Y-55500000D02*
X175460000Y-53460000D01*
%TO.N,Net-(C2-Pad2)*%
X138000000Y-72500000D02*
X138000000Y-77500000D01*
X138000000Y-77500000D02*
X138000000Y-77620000D01*
%TO.N,Net-(J4-Pad1)*%
X178000000Y-49000000D02*
X178500000Y-49000000D01*
X178500000Y-49000000D02*
X185500000Y-56000000D01*
X185500000Y-56000000D02*
X185500000Y-63500000D01*
X185500000Y-63500000D02*
X170000000Y-79000000D01*
X165000000Y-79000000D02*
X154500000Y-79000000D01*
X170000000Y-79000000D02*
X165000000Y-79000000D01*
X154500000Y-79000000D02*
X142000000Y-91500000D01*
X137260000Y-91500000D02*
X134500000Y-88740000D01*
X142000000Y-91500000D02*
X137260000Y-91500000D01*
X156500000Y-77000000D02*
X156500000Y-71180000D01*
X154500000Y-79000000D02*
X156500000Y-77000000D01*
%TO.N,Net-(R5-Pad2)*%
X136500000Y-71000000D02*
X149500000Y-71000000D01*
X134500000Y-73000000D02*
X136500000Y-71000000D01*
%TD*%
M02*
